<?xml version="1.0" encoding="utf-8" standalone="no"?>
<!DOCTYPE svg PUBLIC "-//W3C//DTD SVG 1.1//EN"
  "http://www.w3.org/Graphics/SVG/1.1/DTD/svg11.dtd">
<svg xmlns:xlink="http://www.w3.org/1999/xlink" width="432pt" height="284.64pt" viewBox="0 0 432 284.64" xmlns="http://www.w3.org/2000/svg" version="1.1">
 <metadata>
  <rdf:RDF xmlns:dc="http://purl.org/dc/elements/1.1/" xmlns:cc="http://creativecommons.org/ns#" xmlns:rdf="http://www.w3.org/1999/02/22-rdf-syntax-ns#">
   <cc:Work>
    <dc:type rdf:resource="http://purl.org/dc/dcmitype/StillImage"/>
    <dc:date>2026-03-13T17:48:58.568918</dc:date>
    <dc:format>image/svg+xml</dc:format>
    <dc:creator>
     <cc:Agent>
      <dc:title>Matplotlib v3.10.8, https://matplotlib.org/</dc:title>
     </cc:Agent>
    </dc:creator>
   </cc:Work>
  </rdf:RDF>
 </metadata>
 <defs>
  <style type="text/css">*{stroke-linejoin: round; stroke-linecap: butt}</style>
 </defs>
 <g id="figure_1">
  <g id="patch_1">
   <path d="M 0 284.64 
L 432 284.64 
L 432 0 
L 0 0 
z
" style="fill: #ffffff"/>
  </g>
  <g id="axes_1">
   <g id="patch_2">
    <path d="M 32.037336 248.547383 
L 399.962664 248.547383 
L 399.962664 21.431591 
L 32.037336 21.431591 
z
" style="fill: #ffffff"/>
   </g>
   <g id="line2d_1">
    <path d="M 104.507476 79.04904 
L 132.380607 73.882115 
L 160.253738 91.216759 
L 188.126869 131.52486 
L 216 112.356177 
L 243.873131 134.029826 
L 271.746262 170.272513 
L 299.619393 180.801873 
L 327.492524 191.526437 
L 355.365654 234.484623 
L 383.238785 238.223938 
" clip-path="url(#p4513c8c07d)" style="fill: none; stroke: #fcce25; stroke-linecap: square"/>
    <defs>
     <path id="mc5dfb9eafa" d="M 0 2 
C 0.530406 2 1.03916 1.789267 1.414214 1.414214 
C 1.789267 1.03916 2 0.530406 2 0 
C 2 -0.530406 1.789267 -1.03916 1.414214 -1.414214 
C 1.03916 -1.789267 0.530406 -2 0 -2 
C -0.530406 -2 -1.03916 -1.789267 -1.414214 -1.414214 
C -1.789267 -1.03916 -2 -0.530406 -2 0 
C -2 0.530406 -1.789267 1.03916 -1.414214 1.414214 
C -1.03916 1.789267 -0.530406 2 0 2 
z
" style="stroke: #fcce25"/>
    </defs>
    <g clip-path="url(#p4513c8c07d)">
     <use xlink:href="#mc5dfb9eafa" x="104.507476" y="79.04904" style="fill: #fcce25; stroke: #fcce25"/>
     <use xlink:href="#mc5dfb9eafa" x="132.380607" y="73.882115" style="fill: #fcce25; stroke: #fcce25"/>
     <use xlink:href="#mc5dfb9eafa" x="160.253738" y="91.216759" style="fill: #fcce25; stroke: #fcce25"/>
     <use xlink:href="#mc5dfb9eafa" x="188.126869" y="131.52486" style="fill: #fcce25; stroke: #fcce25"/>
     <use xlink:href="#mc5dfb9eafa" x="216" y="112.356177" style="fill: #fcce25; stroke: #fcce25"/>
     <use xlink:href="#mc5dfb9eafa" x="243.873131" y="134.029826" style="fill: #fcce25; stroke: #fcce25"/>
     <use xlink:href="#mc5dfb9eafa" x="271.746262" y="170.272513" style="fill: #fcce25; stroke: #fcce25"/>
     <use xlink:href="#mc5dfb9eafa" x="299.619393" y="180.801873" style="fill: #fcce25; stroke: #fcce25"/>
     <use xlink:href="#mc5dfb9eafa" x="327.492524" y="191.526437" style="fill: #fcce25; stroke: #fcce25"/>
     <use xlink:href="#mc5dfb9eafa" x="355.365654" y="234.484623" style="fill: #fcce25; stroke: #fcce25"/>
     <use xlink:href="#mc5dfb9eafa" x="383.238785" y="238.223938" style="fill: #fcce25; stroke: #fcce25"/>
    </g>
   </g>
   <g id="line2d_2">
    <path d="M 48.761215 31.755036 
L 76.634346 31.755036 
L 104.507476 79.04904 
" clip-path="url(#p4513c8c07d)" style="fill: none; stroke-dasharray: 5.55,2.4; stroke-dashoffset: 0; stroke: #d3d3d3; stroke-width: 1.5"/>
    <defs>
     <path id="m83009421fd" d="M 0 -3 
L -0.673542 -0.927051 
L -2.85317 -0.927051 
L -1.089814 0.354102 
L -1.763356 2.427051 
L -0 1.145898 
L 1.763356 2.427051 
L 1.089814 0.354102 
L 2.85317 -0.927051 
L 0.673542 -0.927051 
z
" style="stroke: #d3d3d3; stroke-linejoin: bevel"/>
    </defs>
    <g clip-path="url(#p4513c8c07d)">
     <use xlink:href="#m83009421fd" x="48.761215" y="31.755036" style="fill: #d3d3d3; stroke: #d3d3d3; stroke-linejoin: bevel"/>
     <use xlink:href="#m83009421fd" x="76.634346" y="31.755036" style="fill: #d3d3d3; stroke: #d3d3d3; stroke-linejoin: bevel"/>
     <use xlink:href="#m83009421fd" x="104.507476" y="79.04904" style="fill: #d3d3d3; stroke: #d3d3d3; stroke-linejoin: bevel"/>
    </g>
   </g>
   <g id="line2d_3">
    <path d="M 104.507476 79.04904 
L 132.380607 73.882115 
L 160.253738 91.216759 
L 188.126869 131.52486 
L 216 112.356177 
L 243.873131 134.029826 
L 271.746262 170.272513 
L 299.619393 180.801873 
L 327.492524 191.526437 
L 355.365654 234.484623 
" clip-path="url(#p4513c8c07d)" style="fill: none; stroke: #f2844b; stroke-linecap: square"/>
    <defs>
     <path id="md965989fbf" d="M 0 2 
C 0.530406 2 1.03916 1.789267 1.414214 1.414214 
C 1.789267 1.03916 2 0.530406 2 0 
C 2 -0.530406 1.789267 -1.03916 1.414214 -1.414214 
C 1.03916 -1.789267 0.530406 -2 0 -2 
C -0.530406 -2 -1.03916 -1.789267 -1.414214 -1.414214 
C -1.789267 -1.03916 -2 -0.530406 -2 0 
C -2 0.530406 -1.789267 1.03916 -1.414214 1.414214 
C -1.03916 1.789267 -0.530406 2 0 2 
z
" style="stroke: #f2844b"/>
    </defs>
    <g clip-path="url(#p4513c8c07d)">
     <use xlink:href="#md965989fbf" x="104.507476" y="79.04904" style="fill: #f2844b; stroke: #f2844b"/>
     <use xlink:href="#md965989fbf" x="132.380607" y="73.882115" style="fill: #f2844b; stroke: #f2844b"/>
     <use xlink:href="#md965989fbf" x="160.253738" y="91.216759" style="fill: #f2844b; stroke: #f2844b"/>
     <use xlink:href="#md965989fbf" x="188.126869" y="131.52486" style="fill: #f2844b; stroke: #f2844b"/>
     <use xlink:href="#md965989fbf" x="216" y="112.356177" style="fill: #f2844b; stroke: #f2844b"/>
     <use xlink:href="#md965989fbf" x="243.873131" y="134.029826" style="fill: #f2844b; stroke: #f2844b"/>
     <use xlink:href="#md965989fbf" x="271.746262" y="170.272513" style="fill: #f2844b; stroke: #f2844b"/>
     <use xlink:href="#md965989fbf" x="299.619393" y="180.801873" style="fill: #f2844b; stroke: #f2844b"/>
     <use xlink:href="#md965989fbf" x="327.492524" y="191.526437" style="fill: #f2844b; stroke: #f2844b"/>
     <use xlink:href="#md965989fbf" x="355.365654" y="234.484623" style="fill: #f2844b; stroke: #f2844b"/>
    </g>
   </g>
   <g id="line2d_4">
    <path d="M 104.507476 79.04904 
L 132.380607 73.882115 
L 160.253738 91.216759 
L 188.126869 131.52486 
L 216 112.356177 
L 243.873131 134.029826 
L 271.746262 170.272513 
L 299.619393 180.801873 
" clip-path="url(#p4513c8c07d)" style="fill: none; stroke: #cc4778; stroke-linecap: square"/>
    <defs>
     <path id="m1b77adc047" d="M 0 2 
C 0.530406 2 1.03916 1.789267 1.414214 1.414214 
C 1.789267 1.03916 2 0.530406 2 0 
C 2 -0.530406 1.789267 -1.03916 1.414214 -1.414214 
C 1.03916 -1.789267 0.530406 -2 0 -2 
C -0.530406 -2 -1.03916 -1.789267 -1.414214 -1.414214 
C -1.789267 -1.03916 -2 -0.530406 -2 0 
C -2 0.530406 -1.789267 1.03916 -1.414214 1.414214 
C -1.03916 1.789267 -0.530406 2 0 2 
z
" style="stroke: #cc4778"/>
    </defs>
    <g clip-path="url(#p4513c8c07d)">
     <use xlink:href="#m1b77adc047" x="104.507476" y="79.04904" style="fill: #cc4778; stroke: #cc4778"/>
     <use xlink:href="#m1b77adc047" x="132.380607" y="73.882115" style="fill: #cc4778; stroke: #cc4778"/>
     <use xlink:href="#m1b77adc047" x="160.253738" y="91.216759" style="fill: #cc4778; stroke: #cc4778"/>
     <use xlink:href="#m1b77adc047" x="188.126869" y="131.52486" style="fill: #cc4778; stroke: #cc4778"/>
     <use xlink:href="#m1b77adc047" x="216" y="112.356177" style="fill: #cc4778; stroke: #cc4778"/>
     <use xlink:href="#m1b77adc047" x="243.873131" y="134.029826" style="fill: #cc4778; stroke: #cc4778"/>
     <use xlink:href="#m1b77adc047" x="271.746262" y="170.272513" style="fill: #cc4778; stroke: #cc4778"/>
     <use xlink:href="#m1b77adc047" x="299.619393" y="180.801873" style="fill: #cc4778; stroke: #cc4778"/>
    </g>
   </g>
   <g id="line2d_5">
    <path d="M 32.037336 71.117913 
L 399.962664 71.117913 
" clip-path="url(#p4513c8c07d)" style="fill: none; stroke-dasharray: 3.7,1.6; stroke-dashoffset: 0; stroke: #41049d"/>
   </g>
   <g id="line2d_6">
    <path d="M 32.037336 110.480791 
L 399.962664 110.480791 
" clip-path="url(#p4513c8c07d)" style="fill: none; stroke-dasharray: 3.7,1.6; stroke-dashoffset: 0; stroke: #8f0da4"/>
   </g>
   <g id="line2d_7">
    <path d="M 32.037336 149.843669 
L 399.962664 149.843669 
" clip-path="url(#p4513c8c07d)" style="fill: none; stroke-dasharray: 3.7,1.6; stroke-dashoffset: 0; stroke: #cc4778"/>
   </g>
   <g id="line2d_8">
    <path d="M 32.037336 189.206546 
L 399.962664 189.206546 
" clip-path="url(#p4513c8c07d)" style="fill: none; stroke-dasharray: 3.7,1.6; stroke-dashoffset: 0; stroke: #f2844b"/>
   </g>
   <g id="line2d_9">
    <path d="M 32.037336 228.569424 
L 399.962664 228.569424 
" clip-path="url(#p4513c8c07d)" style="fill: none; stroke-dasharray: 3.7,1.6; stroke-dashoffset: 0; stroke: #fcce25"/>
   </g>
   <g id="line2d_10">
    <path d="M 104.507476 79.04904 
L 132.380607 73.882115 
L 160.253738 91.216759 
L 188.126869 131.52486 
L 216 112.356177 
" clip-path="url(#p4513c8c07d)" style="fill: none; stroke: #8f0da4; stroke-linecap: square"/>
    <defs>
     <path id="mec2d951a79" d="M 0 2 
C 0.530406 2 1.03916 1.789267 1.414214 1.414214 
C 1.789267 1.03916 2 0.530406 2 0 
C 2 -0.530406 1.789267 -1.03916 1.414214 -1.414214 
C 1.03916 -1.789267 0.530406 -2 0 -2 
C -0.530406 -2 -1.03916 -1.789267 -1.414214 -1.414214 
C -1.789267 -1.03916 -2 -0.530406 -2 0 
C -2 0.530406 -1.789267 1.03916 -1.414214 1.414214 
C -1.03916 1.789267 -0.530406 2 0 2 
z
" style="stroke: #8f0da4"/>
    </defs>
    <g clip-path="url(#p4513c8c07d)">
     <use xlink:href="#mec2d951a79" x="104.507476" y="79.04904" style="fill: #8f0da4; stroke: #8f0da4"/>
     <use xlink:href="#mec2d951a79" x="132.380607" y="73.882115" style="fill: #8f0da4; stroke: #8f0da4"/>
     <use xlink:href="#mec2d951a79" x="160.253738" y="91.216759" style="fill: #8f0da4; stroke: #8f0da4"/>
     <use xlink:href="#mec2d951a79" x="188.126869" y="131.52486" style="fill: #8f0da4; stroke: #8f0da4"/>
     <use xlink:href="#mec2d951a79" x="216" y="112.356177" style="fill: #8f0da4; stroke: #8f0da4"/>
    </g>
   </g>
   <g id="line2d_11">
    <path d="M 104.507476 79.04904 
L 132.380607 73.882115 
" clip-path="url(#p4513c8c07d)" style="fill: none; stroke: #41049d; stroke-linecap: square"/>
    <defs>
     <path id="m763a070be4" d="M 0 2 
C 0.530406 2 1.03916 1.789267 1.414214 1.414214 
C 1.789267 1.03916 2 0.530406 2 0 
C 2 -0.530406 1.789267 -1.03916 1.414214 -1.414214 
C 1.03916 -1.789267 0.530406 -2 0 -2 
C -0.530406 -2 -1.03916 -1.789267 -1.414214 -1.414214 
C -1.789267 -1.03916 -2 -0.530406 -2 0 
C -2 0.530406 -1.789267 1.03916 -1.414214 1.414214 
C -1.03916 1.789267 -0.530406 2 0 2 
z
" style="stroke: #41049d"/>
    </defs>
    <g clip-path="url(#p4513c8c07d)">
     <use xlink:href="#m763a070be4" x="104.507476" y="79.04904" style="fill: #41049d; stroke: #41049d"/>
     <use xlink:href="#m763a070be4" x="132.380607" y="73.882115" style="fill: #41049d; stroke: #41049d"/>
    </g>
   </g>
   <g id="matplotlib.axis_1">
    <g id="xtick_1">
     <g id="line2d_12">
      <defs>
       <path id="ma7f761e318" d="M 0 0 
L 0 3.5 
" style="stroke: #000000; stroke-width: 0.8"/>
      </defs>
      <g>
       <use xlink:href="#ma7f761e318" x="48.761215" y="248.547383" style="stroke: #000000; stroke-width: 0.8"/>
      </g>
     </g>
     <g id="text_1">
      <!-- $\mathdefault{1}$ -->
      <g transform="translate(46.261215 262.403633) scale(0.1 -0.1)">
       <defs>
        <path id="Times-Roman-31" d="M 1894 4294 
Q 1906 4278 1907 4270 
Q 1909 4263 1909 4234 
L 1909 472 
Q 1909 231 2037 165 
Q 2166 100 2516 88 
L 2516 0 
L 753 0 
L 753 94 
Q 1131 113 1247 197 
Q 1363 281 1363 563 
L 1363 3456 
Q 1363 3606 1325 3684 
Q 1288 3763 1163 3763 
Q 1081 3763 951 3717 
Q 822 3672 709 3622 
L 709 3709 
L 1856 4294 
L 1894 4294 
z
" transform="scale(0.015625)"/>
       </defs>
       <use xlink:href="#Times-Roman-31" transform="translate(0 0.90625)"/>
      </g>
     </g>
    </g>
    <g id="xtick_2">
     <g id="line2d_13">
      <g>
       <use xlink:href="#ma7f761e318" x="76.634346" y="248.547383" style="stroke: #000000; stroke-width: 0.8"/>
      </g>
     </g>
     <g id="text_2">
      <!-- $\mathdefault{2}$ -->
      <g transform="translate(74.134346 262.403633) scale(0.1 -0.1)">
       <defs>
        <path id="Times-Roman-32" d="M 191 72 
Q 1334 1259 1743 1815 
Q 2153 2372 2153 2900 
Q 2153 3363 1903 3605 
Q 1653 3847 1306 3847 
Q 878 3847 613 3534 
Q 466 3363 331 3006 
L 197 3034 
Q 353 3753 726 4033 
Q 1100 4313 1528 4313 
Q 2056 4313 2382 3980 
Q 2709 3647 2709 3166 
Q 2709 2653 2356 2178 
Q 2003 1703 822 488 
L 2256 488 
Q 2556 488 2678 559 
Q 2800 631 2953 909 
L 3034 872 
L 2688 0 
L 191 0 
L 191 72 
z
" transform="scale(0.015625)"/>
       </defs>
       <use xlink:href="#Times-Roman-32" transform="translate(0 0.609375)"/>
      </g>
     </g>
    </g>
    <g id="xtick_3">
     <g id="line2d_14">
      <g>
       <use xlink:href="#ma7f761e318" x="104.507476" y="248.547383" style="stroke: #000000; stroke-width: 0.8"/>
      </g>
     </g>
     <g id="text_3">
      <!-- $\mathdefault{3}$ -->
      <g transform="translate(102.007476 262.403633) scale(0.1 -0.1)">
       <defs>
        <path id="Times-Roman-33" d="M 497 544 
Q 669 544 951 366 
Q 1234 188 1431 188 
Q 1869 188 2081 483 
Q 2294 778 2294 1125 
Q 2294 1459 2122 1713 
Q 1831 2141 1141 2141 
Q 1100 2141 1062 2139 
Q 1025 2138 975 2131 
L 969 2213 
Q 1469 2394 1756 2628 
Q 2044 2863 2044 3247 
Q 2044 3588 1817 3766 
Q 1591 3944 1300 3944 
Q 956 3944 694 3691 
Q 550 3553 384 3266 
L 288 3288 
Q 413 3763 753 4047 
Q 1094 4331 1541 4331 
Q 2019 4331 2280 4068 
Q 2541 3806 2541 3463 
Q 2541 3159 2325 2906 
Q 2203 2763 1947 2584 
Q 2247 2456 2428 2284 
Q 2769 1956 2769 1453 
Q 2769 859 2301 406 
Q 1834 -47 972 -47 
Q 588 -47 433 67 
Q 278 181 278 313 
Q 278 394 329 469 
Q 381 544 497 544 
z
" transform="scale(0.015625)"/>
       </defs>
       <use xlink:href="#Times-Roman-33" transform="translate(0 0.328125)"/>
      </g>
     </g>
    </g>
    <g id="xtick_4">
     <g id="line2d_15">
      <g>
       <use xlink:href="#ma7f761e318" x="132.380607" y="248.547383" style="stroke: #000000; stroke-width: 0.8"/>
      </g>
     </g>
     <g id="text_4">
      <!-- $\mathdefault{4}$ -->
      <g transform="translate(129.880607 262.403633) scale(0.1 -0.1)">
       <defs>
        <path id="Times-Roman-34" d="M 1866 3650 
L 331 1481 
L 1866 1481 
L 1866 3650 
z
M 2072 4294 
L 2369 4294 
L 2369 1481 
L 3022 1481 
L 3022 1066 
L 2369 1066 
L 2369 0 
L 1872 0 
L 1872 1066 
L 72 1066 
L 72 1481 
L 2072 4294 
z
" transform="scale(0.015625)"/>
       </defs>
       <use xlink:href="#Times-Roman-34" transform="translate(0 0.90625)"/>
      </g>
     </g>
    </g>
    <g id="xtick_5">
     <g id="line2d_16">
      <g>
       <use xlink:href="#ma7f761e318" x="160.253738" y="248.547383" style="stroke: #000000; stroke-width: 0.8"/>
      </g>
     </g>
     <g id="text_5">
      <!-- $\mathdefault{5}$ -->
      <g transform="translate(157.753738 262.403633) scale(0.1 -0.1)">
       <defs>
        <path id="Times-Roman-35" d="M 478 572 
Q 656 572 945 370 
Q 1234 169 1391 169 
Q 1750 169 2019 486 
Q 2288 803 2288 1266 
Q 2288 2075 1425 2431 
Q 947 2628 534 2628 
Q 466 2628 448 2633 
Q 431 2638 406 2666 
Q 413 2691 417 2708 
Q 422 2725 428 2741 
L 1109 4234 
L 2450 4234 
Q 2550 4234 2604 4268 
Q 2659 4303 2747 4397 
L 2797 4353 
L 2553 3775 
Q 2541 3747 2484 3739 
Q 2428 3731 2363 3731 
L 1153 3731 
L 888 3184 
Q 1400 3097 1638 3019 
Q 2028 2888 2291 2631 
Q 2516 2409 2631 2132 
Q 2747 1856 2747 1547 
Q 2747 856 2255 393 
Q 1763 -69 1009 -69 
Q 703 -69 516 -9 
Q 203 88 203 338 
Q 203 431 270 501 
Q 338 572 478 572 
z
" transform="scale(0.015625)"/>
       </defs>
       <use xlink:href="#Times-Roman-35" transform="translate(0 0.296875)"/>
      </g>
     </g>
    </g>
    <g id="xtick_6">
     <g id="line2d_17">
      <g>
       <use xlink:href="#ma7f761e318" x="188.126869" y="248.547383" style="stroke: #000000; stroke-width: 0.8"/>
      </g>
     </g>
     <g id="text_6">
      <!-- $\mathdefault{6}$ -->
      <g transform="translate(185.626869 262.403633) scale(0.1 -0.1)">
       <defs>
        <path id="Times-Roman-36" d="M 2994 1422 
Q 2994 850 2626 390 
Q 2259 -69 1672 -69 
Q 1122 -69 670 447 
Q 219 963 219 1819 
Q 219 2922 1094 3713 
Q 1875 4375 2850 4375 
L 2866 4272 
Q 2475 4200 2192 4076 
Q 1909 3953 1688 3731 
Q 1459 3506 1259 3159 
Q 1059 2813 984 2472 
Q 1178 2591 1319 2647 
Q 1569 2747 1822 2747 
Q 2319 2747 2656 2403 
Q 2994 2059 2994 1422 
z
M 2422 1181 
Q 2422 1597 2291 1919 
Q 2072 2456 1547 2456 
Q 1063 2456 903 2169 
Q 809 2000 809 1606 
Q 809 1097 1026 609 
Q 1244 122 1713 122 
Q 2084 122 2253 439 
Q 2422 756 2422 1181 
z
" transform="scale(0.015625)"/>
       </defs>
       <use xlink:href="#Times-Roman-36" transform="translate(0 0.640625)"/>
      </g>
     </g>
    </g>
    <g id="xtick_7">
     <g id="line2d_18">
      <g>
       <use xlink:href="#ma7f761e318" x="216" y="248.547383" style="stroke: #000000; stroke-width: 0.8"/>
      </g>
     </g>
     <g id="text_7">
      <!-- $\mathdefault{7}$ -->
      <g transform="translate(213.5 262.403633) scale(0.1 -0.1)">
       <defs>
        <path id="Times-Roman-37" d="M 2872 4234 
L 2872 4131 
L 1516 -59 
L 1103 -59 
L 2369 3763 
L 1006 3763 
Q 703 3763 570 3663 
Q 438 3563 234 3244 
L 125 3294 
Q 328 3794 376 3911 
Q 425 4028 503 4234 
L 2872 4234 
z
" transform="scale(0.015625)"/>
       </defs>
       <use xlink:href="#Times-Roman-37" transform="translate(0 0.84375)"/>
      </g>
     </g>
    </g>
    <g id="xtick_8">
     <g id="line2d_19">
      <g>
       <use xlink:href="#ma7f761e318" x="243.873131" y="248.547383" style="stroke: #000000; stroke-width: 0.8"/>
      </g>
     </g>
     <g id="text_8">
      <!-- $\mathdefault{8}$ -->
      <g transform="translate(241.373131 262.403633) scale(0.1 -0.1)">
       <defs>
        <path id="Times-Roman-38" d="M 1609 106 
Q 1969 106 2153 306 
Q 2338 506 2338 806 
Q 2338 1147 2142 1358 
Q 1947 1569 1341 1997 
Q 1072 1828 950 1559 
Q 828 1291 828 1041 
Q 828 613 1048 359 
Q 1269 106 1609 106 
z
M 1650 2494 
Q 1944 2700 2056 2841 
Q 2250 3081 2250 3422 
Q 2250 3719 2067 3926 
Q 1884 4134 1513 4134 
Q 1225 4134 1037 3953 
Q 850 3772 850 3513 
Q 850 3219 1070 2967 
Q 1291 2716 1650 2494 
z
M 1169 2131 
Q 756 2463 606 2659 
Q 375 2959 375 3322 
Q 375 3734 717 4021 
Q 1059 4309 1606 4309 
Q 2109 4309 2406 4037 
Q 2703 3766 2703 3406 
Q 2703 3041 2400 2750 
Q 2225 2584 1834 2369 
Q 2366 1975 2595 1683 
Q 2825 1391 2825 994 
Q 2825 544 2486 237 
Q 2147 -69 1578 -69 
Q 1069 -69 705 214 
Q 341 497 341 959 
Q 341 1356 594 1659 
Q 759 1856 1169 2131 
z
" transform="scale(0.015625)"/>
       </defs>
       <use xlink:href="#Times-Roman-38" transform="translate(0 0.671875)"/>
      </g>
     </g>
    </g>
    <g id="xtick_9">
     <g id="line2d_20">
      <g>
       <use xlink:href="#ma7f761e318" x="271.746262" y="248.547383" style="stroke: #000000; stroke-width: 0.8"/>
      </g>
     </g>
     <g id="text_9">
      <!-- $\mathdefault{9}$ -->
      <g transform="translate(269.246262 262.403633) scale(0.1 -0.1)">
       <defs>
        <path id="Times-Roman-39" d="M 1597 1791 
Q 1809 1791 2036 1909 
Q 2263 2028 2294 2109 
Q 2306 2141 2315 2342 
Q 2325 2544 2325 2669 
Q 2325 3319 2106 3725 
Q 1888 4131 1466 4131 
Q 1159 4131 970 3853 
Q 781 3575 781 3022 
Q 781 2566 957 2178 
Q 1134 1791 1597 1791 
z
M 1509 4309 
Q 2197 4309 2572 3761 
Q 2947 3213 2947 2538 
Q 2947 2063 2769 1572 
Q 2591 1081 2250 697 
Q 1853 253 1244 38 
Q 903 -84 384 -150 
L 353 -25 
Q 678 50 894 134 
Q 1281 288 1516 509 
Q 1847 825 2045 1214 
Q 2244 1603 2294 1866 
L 2184 1784 
Q 1953 1609 1641 1544 
Q 1478 1506 1344 1506 
Q 813 1506 502 1882 
Q 191 2259 191 2781 
Q 191 3447 561 3878 
Q 931 4309 1509 4309 
z
" transform="scale(0.015625)"/>
       </defs>
       <use xlink:href="#Times-Roman-39" transform="translate(0 0.671875)"/>
      </g>
     </g>
    </g>
    <g id="xtick_10">
     <g id="line2d_21">
      <g>
       <use xlink:href="#ma7f761e318" x="299.619393" y="248.547383" style="stroke: #000000; stroke-width: 0.8"/>
      </g>
     </g>
     <g id="text_10">
      <!-- $\mathdefault{10}$ -->
      <g transform="translate(294.619393 262.403633) scale(0.1 -0.1)">
       <defs>
        <path id="Times-Roman-30" d="M 1531 116 
Q 1991 116 2162 619 
Q 2334 1122 2334 2075 
Q 2334 2834 2231 3288 
Q 2038 4131 1506 4131 
Q 975 4131 778 3263 
Q 675 2800 675 2044 
Q 675 1334 781 909 
Q 981 116 1531 116 
z
M 1522 4300 
Q 2241 4300 2638 3547 
Q 2953 2938 2953 2147 
Q 2953 1525 2759 975 
Q 2394 -59 1494 -59 
Q 878 -59 481 500 
Q 56 1097 56 2122 
Q 56 2928 341 3509 
Q 725 4300 1522 4300 
z
" transform="scale(0.015625)"/>
       </defs>
       <use xlink:href="#Times-Roman-31" transform="translate(0 0.8125)"/>
       <use xlink:href="#Times-Roman-30" transform="translate(50 0.8125)"/>
      </g>
     </g>
    </g>
    <g id="xtick_11">
     <g id="line2d_22">
      <g>
       <use xlink:href="#ma7f761e318" x="327.492524" y="248.547383" style="stroke: #000000; stroke-width: 0.8"/>
      </g>
     </g>
     <g id="text_11">
      <!-- $\mathdefault{11}$ -->
      <g transform="translate(322.492524 262.403633) scale(0.1 -0.1)">
       <use xlink:href="#Times-Roman-31" transform="translate(0 0.90625)"/>
       <use xlink:href="#Times-Roman-31" transform="translate(50 0.90625)"/>
      </g>
     </g>
    </g>
    <g id="xtick_12">
     <g id="line2d_23">
      <g>
       <use xlink:href="#ma7f761e318" x="355.365654" y="248.547383" style="stroke: #000000; stroke-width: 0.8"/>
      </g>
     </g>
     <g id="text_12">
      <!-- $\mathdefault{12}$ -->
      <g transform="translate(350.365654 262.403633) scale(0.1 -0.1)">
       <use xlink:href="#Times-Roman-31" transform="translate(0 0.609375)"/>
       <use xlink:href="#Times-Roman-32" transform="translate(50 0.609375)"/>
      </g>
     </g>
    </g>
    <g id="xtick_13">
     <g id="line2d_24">
      <g>
       <use xlink:href="#ma7f761e318" x="383.238785" y="248.547383" style="stroke: #000000; stroke-width: 0.8"/>
      </g>
     </g>
     <g id="text_13">
      <!-- $\mathdefault{13}$ -->
      <g transform="translate(378.238785 262.403633) scale(0.1 -0.1)">
       <use xlink:href="#Times-Roman-31" transform="translate(0 0.328125)"/>
       <use xlink:href="#Times-Roman-33" transform="translate(50 0.328125)"/>
      </g>
     </g>
    </g>
    <g id="text_14">
     <!-- Sample number -->
     <g transform="translate(184.478906 275.438008) scale(0.1 -0.1)">
      <defs>
       <path id="Times-Roman-53" d="M 413 1288 
Q 575 856 794 600 
Q 1175 153 1741 153 
Q 2047 153 2270 347 
Q 2494 541 2494 888 
Q 2494 1200 2269 1431 
Q 2122 1578 1650 1872 
L 1103 2213 
Q 856 2369 709 2528 
Q 438 2831 438 3197 
Q 438 3681 759 4003 
Q 1081 4325 1613 4325 
Q 1831 4325 2139 4217 
Q 2447 4109 2491 4109 
Q 2609 4109 2654 4165 
Q 2700 4222 2725 4325 
L 2856 4325 
L 2997 2963 
L 2844 2963 
Q 2688 3578 2342 3822 
Q 1997 4066 1659 4066 
Q 1397 4066 1201 3911 
Q 1006 3756 1006 3481 
Q 1006 3234 1156 3059 
Q 1306 2881 1622 2688 
L 2184 2341 
Q 2713 2016 2928 1744 
Q 3141 1469 3141 1094 
Q 3141 591 2761 253 
Q 2381 -84 1791 -84 
Q 1494 -84 1170 28 
Q 847 141 800 141 
Q 688 141 648 72 
Q 609 3 597 -75 
L 456 -75 
L 266 1288 
L 413 1288 
z
M 1781 4325 
L 1781 4325 
z
" transform="scale(0.015625)"/>
       <path id="Times-Roman-61" d="M 1834 1731 
Q 1475 1613 1241 1469 
Q 791 1191 791 838 
Q 791 553 978 419 
Q 1100 331 1250 331 
Q 1456 331 1645 447 
Q 1834 563 1834 741 
L 1834 1731 
z
M 234 622 
Q 234 1075 688 1378 
Q 975 1566 1834 1888 
L 1834 2153 
Q 1834 2472 1772 2597 
Q 1666 2806 1331 2806 
Q 1172 2806 1028 2725 
Q 884 2641 884 2494 
Q 884 2456 900 2367 
Q 916 2278 916 2253 
Q 916 2078 800 2009 
Q 734 1969 644 1969 
Q 503 1969 428 2061 
Q 353 2153 353 2266 
Q 353 2484 623 2723 
Q 894 2963 1416 2963 
Q 2022 2963 2238 2569 
Q 2353 2353 2353 1941 
L 2353 688 
Q 2353 506 2378 438 
Q 2419 316 2547 316 
Q 2619 316 2666 337 
Q 2713 359 2828 444 
L 2828 281 
Q 2728 159 2613 81 
Q 2438 -38 2256 -38 
Q 2044 -38 1948 100 
Q 1853 238 1844 428 
Q 1606 222 1438 122 
Q 1153 -47 897 -47 
Q 628 -47 431 142 
Q 234 331 234 622 
z
M 1425 2963 
L 1425 2963 
z
" transform="scale(0.015625)"/>
       <path id="Times-Roman-6d" d="M 103 81 
Q 347 103 428 163 
Q 553 253 553 525 
L 553 2141 
Q 553 2372 492 2444 
Q 431 2516 291 2516 
Q 225 2516 192 2509 
Q 159 2503 116 2488 
L 116 2597 
L 341 2672 
Q 463 2713 741 2819 
Q 1019 2925 1034 2925 
Q 1050 2925 1053 2909 
Q 1056 2894 1056 2850 
L 1056 2428 
Q 1366 2709 1591 2817 
Q 1816 2925 2053 2925 
Q 2375 2925 2566 2706 
Q 2666 2588 2731 2384 
Q 2963 2619 3134 2731 
Q 3431 2925 3741 2925 
Q 4244 2925 4413 2516 
Q 4509 2284 4509 1784 
L 4509 488 
Q 4509 266 4607 186 
Q 4706 106 4963 81 
L 4963 0 
L 3553 0 
L 3553 88 
Q 3825 113 3911 197 
Q 3997 281 3997 541 
L 3997 1888 
Q 3997 2191 3931 2334 
Q 3816 2591 3478 2591 
Q 3275 2591 3075 2456 
Q 2959 2378 2791 2206 
L 2791 606 
Q 2791 353 2880 222 
Q 2969 91 3256 81 
L 3256 0 
L 1822 0 
L 1822 81 
Q 2119 119 2200 225 
Q 2281 331 2281 747 
L 2281 1622 
Q 2281 2103 2219 2284 
Q 2116 2591 1781 2591 
Q 1591 2591 1406 2486 
Q 1222 2381 1081 2213 
L 1081 503 
Q 1081 266 1164 175 
Q 1247 84 1525 81 
L 1525 0 
L 103 0 
L 103 81 
z
" transform="scale(0.015625)"/>
       <path id="Times-Roman-70" d="M 1022 575 
Q 1103 363 1264 258 
Q 1425 153 1644 153 
Q 1981 153 2220 489 
Q 2459 825 2459 1425 
Q 2459 2000 2211 2284 
Q 1963 2569 1634 2569 
Q 1403 2569 1212 2426 
Q 1022 2284 1022 2147 
L 1022 575 
z
M 28 -1291 
Q 322 -1272 401 -1165 
Q 481 -1059 481 -831 
L 481 2169 
Q 481 2406 423 2473 
Q 366 2541 206 2541 
Q 172 2541 142 2537 
Q 113 2534 56 2525 
L 56 2628 
L 353 2725 
Q 369 2728 981 2941 
Q 997 2941 1005 2927 
Q 1013 2913 1013 2894 
L 1013 2472 
Q 1219 2678 1375 2778 
Q 1656 2953 1953 2953 
Q 2384 2953 2695 2586 
Q 3006 2219 3006 1581 
Q 3006 956 2632 446 
Q 2259 -63 1694 -63 
Q 1519 -63 1391 -19 
Q 1191 47 1022 222 
L 1022 -800 
Q 1022 -1116 1125 -1187 
Q 1228 -1259 1575 -1284 
L 1575 -1394 
L 28 -1394 
L 28 -1291 
z
" transform="scale(0.015625)"/>
       <path id="Times-Roman-6c" d="M 131 88 
Q 422 116 525 205 
Q 628 294 628 553 
L 628 3606 
Q 628 3813 594 3891 
Q 531 4022 341 4022 
Q 297 4022 245 4012 
Q 194 4003 116 3984 
L 116 4088 
Q 538 4200 1131 4388 
Q 1153 4388 1158 4369 
Q 1163 4350 1163 4288 
L 1163 541 
Q 1163 269 1256 189 
Q 1350 109 1644 88 
L 1644 0 
L 131 0 
L 131 88 
z
" transform="scale(0.015625)"/>
       <path id="Times-Roman-65" d="M 1466 2931 
Q 1906 2931 2237 2626 
Q 2569 2322 2569 1763 
L 584 1763 
Q 616 1038 912 706 
Q 1209 375 1616 375 
Q 1944 375 2169 547 
Q 2394 719 2584 1034 
L 2694 997 
Q 2566 600 2214 262 
Q 1863 -75 1353 -75 
Q 766 -75 445 369 
Q 125 813 125 1391 
Q 125 2019 497 2475 
Q 869 2931 1466 2931 
z
M 1284 2703 
Q 928 2703 741 2388 
Q 641 2219 597 1963 
L 1916 1963 
Q 1881 2275 1797 2428 
Q 1644 2703 1284 2703 
z
M 1425 2931 
L 1425 2931 
z
" transform="scale(0.015625)"/>
       <path id="Times-Roman-20" transform="scale(0.015625)"/>
       <path id="Times-Roman-6e" d="M 116 88 
Q 338 116 427 198 
Q 516 281 516 569 
L 516 2153 
Q 516 2353 478 2434 
Q 419 2553 234 2553 
Q 206 2553 176 2550 
Q 147 2547 103 2541 
L 103 2650 
Q 231 2688 709 2844 
L 1003 2941 
Q 1025 2941 1029 2925 
Q 1034 2909 1034 2881 
L 1034 2422 
Q 1322 2691 1484 2791 
Q 1728 2944 1991 2944 
Q 2203 2944 2378 2822 
Q 2716 2584 2716 1975 
L 2716 516 
Q 2716 291 2806 191 
Q 2897 91 3109 88 
L 3109 0 
L 1775 0 
L 1775 88 
Q 2003 119 2093 214 
Q 2184 309 2184 628 
L 2184 1963 
Q 2184 2231 2084 2407 
Q 1984 2584 1716 2584 
Q 1531 2584 1341 2459 
Q 1234 2388 1066 2222 
L 1066 472 
Q 1066 247 1166 170 
Q 1266 94 1481 88 
L 1481 0 
L 116 0 
L 116 88 
z
M 1603 2944 
L 1603 2944 
z
" transform="scale(0.015625)"/>
       <path id="Times-Roman-75" d="M 991 2894 
L 991 894 
Q 991 681 1050 553 
Q 1166 316 1475 316 
Q 1688 316 1891 456 
Q 2006 534 2125 672 
L 2125 2384 
Q 2125 2625 2031 2700 
Q 1938 2775 1656 2791 
L 1656 2894 
L 2666 2894 
L 2666 694 
Q 2666 481 2742 401 
Q 2819 322 3066 331 
L 3066 244 
Q 2894 197 2812 173 
Q 2731 150 2541 88 
Q 2459 59 2184 -47 
Q 2169 -47 2166 -33 
Q 2163 -19 2163 0 
L 2163 503 
Q 1950 250 1775 128 
Q 1509 -59 1213 -59 
Q 941 -59 700 134 
Q 456 325 456 775 
L 456 2397 
Q 456 2647 350 2731 
Q 281 2784 56 2806 
L 56 2894 
L 991 2894 
z
M 1603 2931 
L 1603 2931 
z
" transform="scale(0.015625)"/>
       <path id="Times-Roman-62" d="M 22 3975 
L 22 4081 
Q 378 4163 662 4263 
Q 947 4363 969 4363 
Q 975 4344 975 4325 
L 975 2422 
Q 1056 2572 1219 2706 
Q 1506 2941 1881 2941 
Q 2341 2941 2666 2553 
Q 2991 2166 2991 1547 
Q 2991 884 2569 412 
Q 2147 -59 1459 -59 
Q 1113 -59 778 78 
Q 444 216 444 353 
L 444 3656 
Q 444 3838 394 3914 
Q 344 3991 163 3991 
L 22 3975 
z
M 963 456 
Q 991 294 1206 223 
Q 1422 153 1584 153 
Q 2022 153 2233 481 
Q 2444 809 2444 1275 
Q 2444 1741 2247 2136 
Q 2050 2531 1609 2531 
Q 1388 2531 1175 2395 
Q 963 2259 963 2050 
L 963 456 
z
" transform="scale(0.015625)"/>
       <path id="Times-Roman-72" d="M 28 103 
Q 316 128 409 204 
Q 503 281 503 531 
L 503 1941 
Q 503 2250 445 2383 
Q 388 2516 234 2516 
Q 203 2516 151 2508 
Q 100 2500 44 2488 
L 44 2591 
Q 222 2653 409 2718 
Q 597 2784 669 2813 
Q 825 2872 991 2947 
Q 1013 2947 1017 2931 
Q 1022 2916 1022 2866 
L 1022 2353 
Q 1222 2631 1408 2787 
Q 1594 2944 1794 2944 
Q 1953 2944 2053 2848 
Q 2153 2753 2153 2609 
Q 2153 2481 2076 2393 
Q 2000 2306 1884 2306 
Q 1766 2306 1645 2415 
Q 1525 2525 1456 2525 
Q 1347 2525 1187 2348 
Q 1028 2172 1028 1984 
L 1028 575 
Q 1028 306 1153 201 
Q 1278 97 1569 103 
L 1569 0 
L 28 0 
L 28 103 
z
" transform="scale(0.015625)"/>
      </defs>
      <use xlink:href="#Times-Roman-53"/>
      <use xlink:href="#Times-Roman-61" transform="translate(55.615234 0)"/>
      <use xlink:href="#Times-Roman-6d" transform="translate(100 0)"/>
      <use xlink:href="#Times-Roman-70" transform="translate(177.783203 0)"/>
      <use xlink:href="#Times-Roman-6c" transform="translate(227.783203 0)"/>
      <use xlink:href="#Times-Roman-65" transform="translate(255.566406 0)"/>
      <use xlink:href="#Times-Roman-20" transform="translate(299.951172 0)"/>
      <use xlink:href="#Times-Roman-6e" transform="translate(324.951172 0)"/>
      <use xlink:href="#Times-Roman-75" transform="translate(374.951172 0)"/>
      <use xlink:href="#Times-Roman-6d" transform="translate(424.951172 0)"/>
      <use xlink:href="#Times-Roman-62" transform="translate(502.734375 0)"/>
      <use xlink:href="#Times-Roman-65" transform="translate(552.734375 0)"/>
      <use xlink:href="#Times-Roman-72" transform="translate(597.119141 0)"/>
     </g>
    </g>
   </g>
   <g id="matplotlib.axis_2">
    <g id="ytick_1">
     <g id="line2d_25">
      <defs>
       <path id="ma1fc838d1d" d="M 0 0 
L -3.5 0 
" style="stroke: #000000; stroke-width: 0.8"/>
      </defs>
      <g>
       <use xlink:href="#ma1fc838d1d" x="32.037336" y="228.569424" style="stroke: #000000; stroke-width: 0.8"/>
      </g>
     </g>
     <g id="text_15">
      <!-- $\mathdefault{10^{-5}}$ -->
      <g transform="translate(7.237336 231.997549) scale(0.1 -0.1)">
       <defs>
        <path id="Times-Roman-2212" d="M 191 1834 
L 3422 1834 
L 3422 1397 
L 191 1397 
L 191 1834 
z
" transform="scale(0.015625)"/>
       </defs>
       <use xlink:href="#Times-Roman-31" transform="translate(0 0.495313)"/>
       <use xlink:href="#Times-Roman-30" transform="translate(50 0.495313)"/>
       <use xlink:href="#Times-Roman-2212" transform="translate(100.785313 31.907813) scale(0.7)"/>
       <use xlink:href="#Times-Roman-35" transform="translate(140.262852 31.907813) scale(0.7)"/>
      </g>
     </g>
    </g>
    <g id="ytick_2">
     <g id="line2d_26">
      <g>
       <use xlink:href="#ma1fc838d1d" x="32.037336" y="189.206546" style="stroke: #000000; stroke-width: 0.8"/>
      </g>
     </g>
     <g id="text_16">
      <!-- $\mathdefault{10^{-4}}$ -->
      <g transform="translate(7.237336 192.634671) scale(0.1 -0.1)">
       <use xlink:href="#Times-Roman-31" transform="translate(0 0.621875)"/>
       <use xlink:href="#Times-Roman-30" transform="translate(50 0.621875)"/>
       <use xlink:href="#Times-Roman-2212" transform="translate(100.785313 32.034375) scale(0.7)"/>
       <use xlink:href="#Times-Roman-34" transform="translate(140.262852 32.034375) scale(0.7)"/>
      </g>
     </g>
    </g>
    <g id="ytick_3">
     <g id="line2d_27">
      <g>
       <use xlink:href="#ma1fc838d1d" x="32.037336" y="149.843669" style="stroke: #000000; stroke-width: 0.8"/>
      </g>
     </g>
     <g id="text_17">
      <!-- $\mathdefault{10^{-3}}$ -->
      <g transform="translate(7.237336 153.271794) scale(0.1 -0.1)">
       <use xlink:href="#Times-Roman-31" transform="translate(0 0.217188)"/>
       <use xlink:href="#Times-Roman-30" transform="translate(50 0.217188)"/>
       <use xlink:href="#Times-Roman-2212" transform="translate(100.785313 31.629688) scale(0.7)"/>
       <use xlink:href="#Times-Roman-33" transform="translate(140.262852 31.629688) scale(0.7)"/>
      </g>
     </g>
    </g>
    <g id="ytick_4">
     <g id="line2d_28">
      <g>
       <use xlink:href="#ma1fc838d1d" x="32.037336" y="110.480791" style="stroke: #000000; stroke-width: 0.8"/>
      </g>
     </g>
     <g id="text_18">
      <!-- $\mathdefault{10^{-2}}$ -->
      <g transform="translate(7.237336 113.908916) scale(0.1 -0.1)">
       <use xlink:href="#Times-Roman-31" transform="translate(0 0.414062)"/>
       <use xlink:href="#Times-Roman-30" transform="translate(50 0.414062)"/>
       <use xlink:href="#Times-Roman-2212" transform="translate(100.785313 31.826562) scale(0.7)"/>
       <use xlink:href="#Times-Roman-32" transform="translate(140.262852 31.826562) scale(0.7)"/>
      </g>
     </g>
    </g>
    <g id="ytick_5">
     <g id="line2d_29">
      <g>
       <use xlink:href="#ma1fc838d1d" x="32.037336" y="71.117913" style="stroke: #000000; stroke-width: 0.8"/>
      </g>
     </g>
     <g id="text_19">
      <!-- $\mathdefault{10^{-1}}$ -->
      <g transform="translate(7.237336 74.546038) scale(0.1 -0.1)">
       <use xlink:href="#Times-Roman-31" transform="translate(0 0.621875)"/>
       <use xlink:href="#Times-Roman-30" transform="translate(50 0.621875)"/>
       <use xlink:href="#Times-Roman-2212" transform="translate(100.785313 32.034375) scale(0.7)"/>
       <use xlink:href="#Times-Roman-31" transform="translate(140.262852 32.034375) scale(0.7)"/>
      </g>
     </g>
    </g>
    <g id="ytick_6">
     <g id="line2d_30">
      <g>
       <use xlink:href="#ma1fc838d1d" x="32.037336" y="31.755036" style="stroke: #000000; stroke-width: 0.8"/>
      </g>
     </g>
     <g id="text_20">
      <!-- $\mathdefault{10^{0}}$ -->
      <g transform="translate(11.137336 35.183161) scale(0.1 -0.1)">
       <use xlink:href="#Times-Roman-31" transform="translate(0 0.55625)"/>
       <use xlink:href="#Times-Roman-30" transform="translate(50 0.55625)"/>
       <use xlink:href="#Times-Roman-30" transform="translate(100.785313 31.96875) scale(0.7)"/>
      </g>
     </g>
    </g>
    <g id="ytick_7">
     <g id="line2d_31">
      <defs>
       <path id="m67d86774e7" d="M 0 0 
L -2 0 
" style="stroke: #000000; stroke-width: 0.6"/>
      </defs>
      <g>
       <use xlink:href="#m67d86774e7" x="32.037336" y="244.233487" style="stroke: #000000; stroke-width: 0.6"/>
      </g>
     </g>
    </g>
    <g id="ytick_8">
     <g id="line2d_32">
      <g>
       <use xlink:href="#m67d86774e7" x="32.037336" y="240.41883" style="stroke: #000000; stroke-width: 0.6"/>
      </g>
     </g>
    </g>
    <g id="ytick_9">
     <g id="line2d_33">
      <g>
       <use xlink:href="#m67d86774e7" x="32.037336" y="237.302029" style="stroke: #000000; stroke-width: 0.6"/>
      </g>
     </g>
    </g>
    <g id="ytick_10">
     <g id="line2d_34">
      <g>
       <use xlink:href="#m67d86774e7" x="32.037336" y="234.66681" style="stroke: #000000; stroke-width: 0.6"/>
      </g>
     </g>
    </g>
    <g id="ytick_11">
     <g id="line2d_35">
      <g>
       <use xlink:href="#m67d86774e7" x="32.037336" y="232.384081" style="stroke: #000000; stroke-width: 0.6"/>
      </g>
     </g>
    </g>
    <g id="ytick_12">
     <g id="line2d_36">
      <g>
       <use xlink:href="#m67d86774e7" x="32.037336" y="230.37057" style="stroke: #000000; stroke-width: 0.6"/>
      </g>
     </g>
    </g>
    <g id="ytick_13">
     <g id="line2d_37">
      <g>
       <use xlink:href="#m67d86774e7" x="32.037336" y="216.720017" style="stroke: #000000; stroke-width: 0.6"/>
      </g>
     </g>
    </g>
    <g id="ytick_14">
     <g id="line2d_38">
      <g>
       <use xlink:href="#m67d86774e7" x="32.037336" y="209.788558" style="stroke: #000000; stroke-width: 0.6"/>
      </g>
     </g>
    </g>
    <g id="ytick_15">
     <g id="line2d_39">
      <g>
       <use xlink:href="#m67d86774e7" x="32.037336" y="204.87061" style="stroke: #000000; stroke-width: 0.6"/>
      </g>
     </g>
    </g>
    <g id="ytick_16">
     <g id="line2d_40">
      <g>
       <use xlink:href="#m67d86774e7" x="32.037336" y="201.055953" style="stroke: #000000; stroke-width: 0.6"/>
      </g>
     </g>
    </g>
    <g id="ytick_17">
     <g id="line2d_41">
      <g>
       <use xlink:href="#m67d86774e7" x="32.037336" y="197.939151" style="stroke: #000000; stroke-width: 0.6"/>
      </g>
     </g>
    </g>
    <g id="ytick_18">
     <g id="line2d_42">
      <g>
       <use xlink:href="#m67d86774e7" x="32.037336" y="195.303933" style="stroke: #000000; stroke-width: 0.6"/>
      </g>
     </g>
    </g>
    <g id="ytick_19">
     <g id="line2d_43">
      <g>
       <use xlink:href="#m67d86774e7" x="32.037336" y="193.021203" style="stroke: #000000; stroke-width: 0.6"/>
      </g>
     </g>
    </g>
    <g id="ytick_20">
     <g id="line2d_44">
      <g>
       <use xlink:href="#m67d86774e7" x="32.037336" y="191.007693" style="stroke: #000000; stroke-width: 0.6"/>
      </g>
     </g>
    </g>
    <g id="ytick_21">
     <g id="line2d_45">
      <g>
       <use xlink:href="#m67d86774e7" x="32.037336" y="177.357139" style="stroke: #000000; stroke-width: 0.6"/>
      </g>
     </g>
    </g>
    <g id="ytick_22">
     <g id="line2d_46">
      <g>
       <use xlink:href="#m67d86774e7" x="32.037336" y="170.425681" style="stroke: #000000; stroke-width: 0.6"/>
      </g>
     </g>
    </g>
    <g id="ytick_23">
     <g id="line2d_47">
      <g>
       <use xlink:href="#m67d86774e7" x="32.037336" y="165.507732" style="stroke: #000000; stroke-width: 0.6"/>
      </g>
     </g>
    </g>
    <g id="ytick_24">
     <g id="line2d_48">
      <g>
       <use xlink:href="#m67d86774e7" x="32.037336" y="161.693075" style="stroke: #000000; stroke-width: 0.6"/>
      </g>
     </g>
    </g>
    <g id="ytick_25">
     <g id="line2d_49">
      <g>
       <use xlink:href="#m67d86774e7" x="32.037336" y="158.576274" style="stroke: #000000; stroke-width: 0.6"/>
      </g>
     </g>
    </g>
    <g id="ytick_26">
     <g id="line2d_50">
      <g>
       <use xlink:href="#m67d86774e7" x="32.037336" y="155.941055" style="stroke: #000000; stroke-width: 0.6"/>
      </g>
     </g>
    </g>
    <g id="ytick_27">
     <g id="line2d_51">
      <g>
       <use xlink:href="#m67d86774e7" x="32.037336" y="153.658326" style="stroke: #000000; stroke-width: 0.6"/>
      </g>
     </g>
    </g>
    <g id="ytick_28">
     <g id="line2d_52">
      <g>
       <use xlink:href="#m67d86774e7" x="32.037336" y="151.644815" style="stroke: #000000; stroke-width: 0.6"/>
      </g>
     </g>
    </g>
    <g id="ytick_29">
     <g id="line2d_53">
      <g>
       <use xlink:href="#m67d86774e7" x="32.037336" y="137.994262" style="stroke: #000000; stroke-width: 0.6"/>
      </g>
     </g>
    </g>
    <g id="ytick_30">
     <g id="line2d_54">
      <g>
       <use xlink:href="#m67d86774e7" x="32.037336" y="131.062803" style="stroke: #000000; stroke-width: 0.6"/>
      </g>
     </g>
    </g>
    <g id="ytick_31">
     <g id="line2d_55">
      <g>
       <use xlink:href="#m67d86774e7" x="32.037336" y="126.144855" style="stroke: #000000; stroke-width: 0.6"/>
      </g>
     </g>
    </g>
    <g id="ytick_32">
     <g id="line2d_56">
      <g>
       <use xlink:href="#m67d86774e7" x="32.037336" y="122.330198" style="stroke: #000000; stroke-width: 0.6"/>
      </g>
     </g>
    </g>
    <g id="ytick_33">
     <g id="line2d_57">
      <g>
       <use xlink:href="#m67d86774e7" x="32.037336" y="119.213396" style="stroke: #000000; stroke-width: 0.6"/>
      </g>
     </g>
    </g>
    <g id="ytick_34">
     <g id="line2d_58">
      <g>
       <use xlink:href="#m67d86774e7" x="32.037336" y="116.578178" style="stroke: #000000; stroke-width: 0.6"/>
      </g>
     </g>
    </g>
    <g id="ytick_35">
     <g id="line2d_59">
      <g>
       <use xlink:href="#m67d86774e7" x="32.037336" y="114.295448" style="stroke: #000000; stroke-width: 0.6"/>
      </g>
     </g>
    </g>
    <g id="ytick_36">
     <g id="line2d_60">
      <g>
       <use xlink:href="#m67d86774e7" x="32.037336" y="112.281938" style="stroke: #000000; stroke-width: 0.6"/>
      </g>
     </g>
    </g>
    <g id="ytick_37">
     <g id="line2d_61">
      <g>
       <use xlink:href="#m67d86774e7" x="32.037336" y="98.631384" style="stroke: #000000; stroke-width: 0.6"/>
      </g>
     </g>
    </g>
    <g id="ytick_38">
     <g id="line2d_62">
      <g>
       <use xlink:href="#m67d86774e7" x="32.037336" y="91.699925" style="stroke: #000000; stroke-width: 0.6"/>
      </g>
     </g>
    </g>
    <g id="ytick_39">
     <g id="line2d_63">
      <g>
       <use xlink:href="#m67d86774e7" x="32.037336" y="86.781977" style="stroke: #000000; stroke-width: 0.6"/>
      </g>
     </g>
    </g>
    <g id="ytick_40">
     <g id="line2d_64">
      <g>
       <use xlink:href="#m67d86774e7" x="32.037336" y="82.96732" style="stroke: #000000; stroke-width: 0.6"/>
      </g>
     </g>
    </g>
    <g id="ytick_41">
     <g id="line2d_65">
      <g>
       <use xlink:href="#m67d86774e7" x="32.037336" y="79.850519" style="stroke: #000000; stroke-width: 0.6"/>
      </g>
     </g>
    </g>
    <g id="ytick_42">
     <g id="line2d_66">
      <g>
       <use xlink:href="#m67d86774e7" x="32.037336" y="77.2153" style="stroke: #000000; stroke-width: 0.6"/>
      </g>
     </g>
    </g>
    <g id="ytick_43">
     <g id="line2d_67">
      <g>
       <use xlink:href="#m67d86774e7" x="32.037336" y="74.93257" style="stroke: #000000; stroke-width: 0.6"/>
      </g>
     </g>
    </g>
    <g id="ytick_44">
     <g id="line2d_68">
      <g>
       <use xlink:href="#m67d86774e7" x="32.037336" y="72.91906" style="stroke: #000000; stroke-width: 0.6"/>
      </g>
     </g>
    </g>
    <g id="ytick_45">
     <g id="line2d_69">
      <g>
       <use xlink:href="#m67d86774e7" x="32.037336" y="59.268507" style="stroke: #000000; stroke-width: 0.6"/>
      </g>
     </g>
    </g>
    <g id="ytick_46">
     <g id="line2d_70">
      <g>
       <use xlink:href="#m67d86774e7" x="32.037336" y="52.337048" style="stroke: #000000; stroke-width: 0.6"/>
      </g>
     </g>
    </g>
    <g id="ytick_47">
     <g id="line2d_71">
      <g>
       <use xlink:href="#m67d86774e7" x="32.037336" y="47.4191" style="stroke: #000000; stroke-width: 0.6"/>
      </g>
     </g>
    </g>
    <g id="ytick_48">
     <g id="line2d_72">
      <g>
       <use xlink:href="#m67d86774e7" x="32.037336" y="43.604443" style="stroke: #000000; stroke-width: 0.6"/>
      </g>
     </g>
    </g>
    <g id="ytick_49">
     <g id="line2d_73">
      <g>
       <use xlink:href="#m67d86774e7" x="32.037336" y="40.487641" style="stroke: #000000; stroke-width: 0.6"/>
      </g>
     </g>
    </g>
    <g id="ytick_50">
     <g id="line2d_74">
      <g>
       <use xlink:href="#m67d86774e7" x="32.037336" y="37.852423" style="stroke: #000000; stroke-width: 0.6"/>
      </g>
     </g>
    </g>
    <g id="ytick_51">
     <g id="line2d_75">
      <g>
       <use xlink:href="#m67d86774e7" x="32.037336" y="35.569693" style="stroke: #000000; stroke-width: 0.6"/>
      </g>
     </g>
    </g>
    <g id="ytick_52">
     <g id="line2d_76">
      <g>
       <use xlink:href="#m67d86774e7" x="32.037336" y="33.556182" style="stroke: #000000; stroke-width: 0.6"/>
      </g>
     </g>
    </g>
   </g>
   <g id="patch_3">
    <path d="M 32.037336 248.547383 
L 32.037336 21.431591 
" style="fill: none; stroke: #000000; stroke-width: 0.8; stroke-linejoin: miter; stroke-linecap: square"/>
   </g>
   <g id="patch_4">
    <path d="M 399.962664 248.547383 
L 399.962664 21.431591 
" style="fill: none; stroke: #000000; stroke-width: 0.8; stroke-linejoin: miter; stroke-linecap: square"/>
   </g>
   <g id="patch_5">
    <path d="M 32.037336 248.547383 
L 399.962664 248.547383 
" style="fill: none; stroke: #000000; stroke-width: 0.8; stroke-linejoin: miter; stroke-linecap: square"/>
   </g>
   <g id="patch_6">
    <path d="M 32.037336 21.431591 
L 399.962664 21.431591 
" style="fill: none; stroke: #000000; stroke-width: 0.8; stroke-linejoin: miter; stroke-linecap: square"/>
   </g>
   <g id="text_21">
    <!-- Adaptive Solver Convergence: Error Indicator -->
    <g transform="translate(104.706563 15.431591) scale(0.12 -0.12)">
     <defs>
      <path id="Times-Roman-41" d="M 2856 1644 
L 2116 3406 
L 1384 1644 
L 2856 1644 
z
M 94 0 
L 94 116 
Q 341 144 464 303 
Q 588 463 888 1169 
L 2222 4309 
L 2347 4309 
L 3941 681 
Q 4100 319 4195 233 
Q 4291 147 4516 116 
L 4516 0 
L 2888 0 
L 2888 116 
Q 3169 141 3250 177 
Q 3331 213 3331 353 
Q 3331 400 3300 519 
Q 3269 638 3213 769 
L 2947 1384 
L 1272 1384 
Q 1022 756 973 617 
Q 925 478 925 397 
Q 925 234 1056 172 
Q 1138 134 1363 116 
L 1363 0 
L 94 0 
z
M 2284 4309 
L 2284 4309 
z
" transform="scale(0.015625)"/>
      <path id="Times-Roman-64" d="M 1516 2953 
Q 1744 2953 1934 2853 
Q 2059 2788 2175 2672 
L 2175 3666 
Q 2175 3856 2133 3928 
Q 2091 4000 1931 4000 
Q 1894 4000 1866 3997 
Q 1838 3994 1741 3984 
L 1741 4088 
L 1997 4153 
Q 2138 4191 2278 4231 
Q 2419 4272 2525 4309 
Q 2575 4325 2691 4369 
L 2709 4363 
L 2703 4034 
Q 2700 3856 2697 3667 
Q 2694 3478 2694 3294 
L 2688 741 
Q 2688 538 2738 456 
Q 2788 375 3003 375 
Q 3038 375 3072 376 
Q 3106 378 3141 384 
L 3141 281 
Q 3122 275 2688 125 
L 2197 -59 
L 2175 -31 
L 2175 353 
Q 2000 163 1872 81 
Q 1644 -59 1344 -59 
Q 813 -59 483 352 
Q 153 763 153 1303 
Q 153 1981 548 2467 
Q 944 2953 1516 2953 
z
M 1631 278 
Q 1875 278 2025 422 
Q 2175 566 2175 694 
L 2175 2034 
Q 2175 2441 1958 2608 
Q 1741 2775 1534 2775 
Q 1141 2775 922 2426 
Q 703 2078 703 1569 
Q 703 1066 936 672 
Q 1169 278 1631 278 
z
" transform="scale(0.015625)"/>
      <path id="Times-Roman-74" d="M 1628 2881 
L 1628 2656 
L 991 2656 
L 984 856 
Q 984 619 1025 497 
Q 1100 281 1319 281 
Q 1431 281 1514 334 
Q 1597 388 1703 503 
L 1784 434 
L 1716 341 
Q 1553 122 1372 31 
Q 1191 -59 1022 -59 
Q 653 -59 522 269 
Q 450 447 450 763 
L 450 2656 
L 109 2656 
Q 94 2666 86 2675 
Q 78 2684 78 2700 
Q 78 2731 92 2748 
Q 106 2766 181 2828 
Q 397 3006 492 3117 
Q 588 3228 941 3703 
Q 981 3703 989 3697 
Q 997 3691 997 3650 
L 997 2881 
L 1628 2881 
z
" transform="scale(0.015625)"/>
      <path id="Times-Roman-69" d="M 525 4034 
Q 525 4169 619 4266 
Q 713 4363 850 4363 
Q 984 4363 1079 4267 
Q 1175 4172 1175 4034 
Q 1175 3900 1079 3804 
Q 984 3709 850 3709 
Q 713 3709 619 3804 
Q 525 3900 525 4034 
z
M 125 88 
Q 459 119 546 201 
Q 634 284 634 650 
L 634 2141 
Q 634 2344 606 2422 
Q 559 2550 409 2550 
Q 375 2550 342 2544 
Q 309 2538 153 2494 
L 153 2591 
L 288 2634 
Q 834 2813 1050 2903 
Q 1138 2941 1163 2941 
Q 1169 2919 1169 2894 
L 1169 650 
Q 1169 294 1255 203 
Q 1341 113 1644 88 
L 1644 0 
L 125 0 
L 125 88 
z
" transform="scale(0.015625)"/>
      <path id="Times-Roman-76" d="M 1375 2903 
L 1375 2806 
Q 1213 2788 1145 2756 
Q 1078 2725 1078 2619 
Q 1078 2569 1092 2523 
Q 1106 2478 1141 2391 
L 1791 775 
L 2353 2206 
Q 2394 2309 2430 2421 
Q 2466 2534 2466 2594 
Q 2466 2716 2350 2769 
Q 2281 2797 2163 2806 
L 2163 2903 
L 3050 2903 
L 3050 2806 
Q 2897 2794 2830 2705 
Q 2763 2616 2634 2294 
L 1731 44 
Q 1706 -16 1690 -37 
Q 1675 -59 1647 -59 
Q 1616 -59 1594 -23 
Q 1572 13 1547 66 
L 591 2353 
Q 475 2631 344 2731 
Q 266 2788 116 2806 
L 116 2903 
L 1375 2903 
z
" transform="scale(0.015625)"/>
      <path id="Times-Roman-6f" d="M 163 1450 
Q 163 2072 558 2501 
Q 953 2931 1575 2931 
Q 2194 2931 2600 2525 
Q 3006 2119 3006 1444 
Q 3006 822 2612 362 
Q 2219 -97 1594 -97 
Q 994 -97 578 343 
Q 163 784 163 1450 
z
M 1488 2744 
Q 1241 2744 1059 2581 
Q 747 2297 747 1600 
Q 747 1044 998 562 
Q 1250 81 1697 81 
Q 2047 81 2236 403 
Q 2425 725 2425 1247 
Q 2425 1788 2184 2266 
Q 1944 2744 1488 2744 
z
M 1603 2931 
L 1603 2931 
z
" transform="scale(0.015625)"/>
      <path id="Times-Roman-43" d="M 2369 4309 
Q 2716 4309 3081 4206 
Q 3447 4103 3491 4103 
Q 3581 4103 3662 4153 
Q 3744 4203 3775 4309 
L 3909 4309 
L 3969 2872 
L 3822 2872 
Q 3694 3300 3488 3563 
Q 3094 4056 2428 4056 
Q 1756 4056 1329 3525 
Q 903 2994 903 2063 
Q 903 1206 1351 695 
Q 1800 184 2488 184 
Q 2984 184 3403 422 
Q 3644 556 3931 828 
L 4050 709 
Q 3838 441 3522 238 
Q 2984 -106 2356 -106 
Q 1325 -106 719 553 
Q 159 1163 159 2075 
Q 159 3009 750 3644 
Q 1372 4309 2369 4309 
z
M 2347 4309 
Q 2347 4309 2347 4309 
z
" transform="scale(0.015625)"/>
      <path id="Times-Roman-67" d="M 628 -578 
Q 628 -841 923 -941 
Q 1219 -1041 1600 -1041 
Q 2119 -1041 2444 -861 
Q 2769 -681 2769 -419 
Q 2769 -209 2506 -141 
Q 2344 -100 1891 -94 
Q 1775 -91 1647 -86 
Q 1519 -81 1413 -75 
Q 1344 -72 1191 -50 
Q 1038 -28 963 -13 
Q 925 -13 778 -209 
Q 628 -409 628 -578 
z
M 1034 1050 
Q 750 1144 592 1384 
Q 434 1625 434 1925 
Q 434 2291 725 2619 
Q 1016 2947 1547 2947 
Q 1775 2947 2050 2839 
Q 2325 2731 2578 2731 
Q 2644 2731 2776 2736 
Q 2909 2741 2969 2741 
L 3006 2741 
L 3006 2488 
L 2466 2488 
Q 2522 2356 2553 2259 
Q 2606 2078 2606 1916 
Q 2606 1559 2311 1261 
Q 2016 963 1516 963 
Q 1438 963 1234 991 
Q 1144 991 995 837 
Q 847 684 847 588 
Q 847 488 1066 441 
Q 1209 409 1384 409 
Q 2188 409 2475 319 
Q 2947 172 2947 -313 
Q 2947 -806 2395 -1100 
Q 1844 -1394 1281 -1394 
Q 769 -1394 469 -1186 
Q 169 -978 169 -750 
Q 169 -638 248 -530 
Q 328 -422 563 -209 
L 769 -25 
L 806 13 
Q 663 69 591 122 
Q 466 219 466 344 
Q 466 459 573 598 
Q 681 738 1034 1050 
z
M 1628 1113 
Q 1800 1113 1916 1206 
Q 2103 1356 2103 1728 
Q 2103 2025 1951 2397 
Q 1800 2769 1447 2769 
Q 1141 2769 1025 2478 
Q 966 2325 966 2100 
Q 966 1719 1150 1416 
Q 1334 1113 1628 1113 
z
M 1603 2947 
L 1603 2947 
z
" transform="scale(0.015625)"/>
      <path id="Times-Roman-63" d="M 1591 2947 
Q 1981 2947 2264 2745 
Q 2547 2544 2547 2303 
Q 2547 2200 2475 2111 
Q 2403 2022 2253 2022 
Q 2144 2022 2061 2097 
Q 1978 2172 1941 2316 
L 1903 2466 
Q 1863 2631 1763 2700 
Q 1659 2766 1491 2766 
Q 1134 2766 889 2455 
Q 644 2144 644 1628 
Q 644 1156 914 781 
Q 1184 406 1644 406 
Q 1969 406 2222 619 
Q 2366 741 2547 1006 
L 2634 953 
Q 2456 578 2259 359 
Q 1881 -59 1384 -59 
Q 897 -59 522 325 
Q 147 709 147 1369 
Q 147 2016 556 2481 
Q 966 2947 1591 2947 
z
M 1453 2947 
L 1453 2947 
z
" transform="scale(0.015625)"/>
      <path id="Times-Roman-3a" d="M 1213 2597 
Q 1213 2441 1105 2342 
Q 997 2244 859 2244 
Q 709 2244 612 2350 
Q 516 2456 516 2594 
Q 516 2738 616 2839 
Q 716 2941 859 2941 
Q 997 2941 1105 2842 
Q 1213 2744 1213 2597 
z
M 850 -53 
Q 719 -53 617 50 
Q 516 153 516 300 
Q 516 441 616 545 
Q 716 650 863 650 
Q 1009 650 1118 548 
Q 1228 447 1228 303 
Q 1228 166 1125 56 
Q 1022 -53 850 -53 
z
" transform="scale(0.015625)"/>
      <path id="Times-Roman-45" d="M 72 116 
Q 425 153 529 242 
Q 634 331 634 694 
L 634 3541 
Q 634 3881 531 3986 
Q 428 4091 72 4116 
L 72 4234 
L 3472 4234 
L 3494 3316 
L 3331 3316 
Q 3250 3741 3087 3866 
Q 2925 3991 2363 3991 
L 1494 3991 
Q 1353 3991 1320 3945 
Q 1288 3900 1288 3775 
L 1288 2347 
L 2272 2347 
Q 2681 2347 2793 2469 
Q 2906 2591 2975 2963 
L 3125 2963 
L 3125 1481 
L 2975 1481 
Q 2903 1853 2790 1973 
Q 2678 2094 2272 2094 
L 1288 2094 
L 1288 509 
Q 1288 319 1408 284 
Q 1528 250 2128 250 
Q 2778 250 3087 392 
Q 3397 534 3644 1081 
L 3822 1081 
L 3531 0 
L 72 0 
L 72 116 
z
M 1959 4234 
L 1959 4234 
z
" transform="scale(0.015625)"/>
      <path id="Times-Roman-49" d="M 103 116 
Q 494 144 609 233 
Q 725 322 725 694 
L 725 3541 
Q 725 3894 609 3995 
Q 494 4097 103 4116 
L 103 4234 
L 1997 4234 
L 1997 4116 
Q 1606 4097 1490 3995 
Q 1375 3894 1375 3541 
L 1375 694 
Q 1375 322 1490 233 
Q 1606 144 1997 116 
L 1997 0 
L 103 0 
L 103 116 
z
M 1050 4234 
L 1050 4234 
z
" transform="scale(0.015625)"/>
     </defs>
     <use xlink:href="#Times-Roman-41"/>
     <use xlink:href="#Times-Roman-64" transform="translate(72.216797 0)"/>
     <use xlink:href="#Times-Roman-61" transform="translate(122.216797 0)"/>
     <use xlink:href="#Times-Roman-70" transform="translate(166.601562 0)"/>
     <use xlink:href="#Times-Roman-74" transform="translate(216.601562 0)"/>
     <use xlink:href="#Times-Roman-69" transform="translate(244.384766 0)"/>
     <use xlink:href="#Times-Roman-76" transform="translate(272.167969 0)"/>
     <use xlink:href="#Times-Roman-65" transform="translate(322.167969 0)"/>
     <use xlink:href="#Times-Roman-20" transform="translate(366.552734 0)"/>
     <use xlink:href="#Times-Roman-53" transform="translate(391.552734 0)"/>
     <use xlink:href="#Times-Roman-6f" transform="translate(447.167969 0)"/>
     <use xlink:href="#Times-Roman-6c" transform="translate(497.167969 0)"/>
     <use xlink:href="#Times-Roman-76" transform="translate(524.951172 0)"/>
     <use xlink:href="#Times-Roman-65" transform="translate(574.951172 0)"/>
     <use xlink:href="#Times-Roman-72" transform="translate(619.335938 0)"/>
     <use xlink:href="#Times-Roman-20" transform="translate(652.636719 0)"/>
     <use xlink:href="#Times-Roman-43" transform="translate(677.636719 0)"/>
     <use xlink:href="#Times-Roman-6f" transform="translate(744.335938 0)"/>
     <use xlink:href="#Times-Roman-6e" transform="translate(794.335938 0)"/>
     <use xlink:href="#Times-Roman-76" transform="translate(844.335938 0)"/>
     <use xlink:href="#Times-Roman-65" transform="translate(894.335938 0)"/>
     <use xlink:href="#Times-Roman-72" transform="translate(938.720703 0)"/>
     <use xlink:href="#Times-Roman-67" transform="translate(972.021484 0)"/>
     <use xlink:href="#Times-Roman-65" transform="translate(1022.021484 0)"/>
     <use xlink:href="#Times-Roman-6e" transform="translate(1066.40625 0)"/>
     <use xlink:href="#Times-Roman-63" transform="translate(1116.40625 0)"/>
     <use xlink:href="#Times-Roman-65" transform="translate(1160.791016 0)"/>
     <use xlink:href="#Times-Roman-3a" transform="translate(1205.175781 0)"/>
     <use xlink:href="#Times-Roman-20" transform="translate(1232.958984 0)"/>
     <use xlink:href="#Times-Roman-45" transform="translate(1257.958984 0)"/>
     <use xlink:href="#Times-Roman-72" transform="translate(1319.042969 0)"/>
     <use xlink:href="#Times-Roman-72" transform="translate(1352.34375 0)"/>
     <use xlink:href="#Times-Roman-6f" transform="translate(1385.644531 0)"/>
     <use xlink:href="#Times-Roman-72" transform="translate(1435.644531 0)"/>
     <use xlink:href="#Times-Roman-20" transform="translate(1468.945312 0)"/>
     <use xlink:href="#Times-Roman-49" transform="translate(1493.945312 0)"/>
     <use xlink:href="#Times-Roman-6e" transform="translate(1527.246094 0)"/>
     <use xlink:href="#Times-Roman-64" transform="translate(1577.246094 0)"/>
     <use xlink:href="#Times-Roman-69" transform="translate(1627.246094 0)"/>
     <use xlink:href="#Times-Roman-63" transform="translate(1655.029297 0)"/>
     <use xlink:href="#Times-Roman-61" transform="translate(1699.414062 0)"/>
     <use xlink:href="#Times-Roman-74" transform="translate(1743.798828 0)"/>
     <use xlink:href="#Times-Roman-6f" transform="translate(1771.582031 0)"/>
     <use xlink:href="#Times-Roman-72" transform="translate(1821.582031 0)"/>
    </g>
   </g>
   <g id="legend_1">
    <g id="line2d_77">
     <path d="M 269.620164 31.431591 
L 277.620164 31.431591 
L 285.620164 31.431591 
" style="fill: none; stroke: #41049d; stroke-linecap: square"/>
     <g>
      <use xlink:href="#m763a070be4" x="277.620164" y="31.431591" style="fill: #41049d; stroke: #41049d"/>
     </g>
    </g>
    <g id="text_22">
     <!-- tol=1e-01 -->
     <g transform="translate(292.020164 34.231591) scale(0.08 -0.08)">
      <defs>
       <path id="Times-Roman-3d" d="M 3422 1191 
L 3422 753 
L 191 753 
L 191 1191 
L 3422 1191 
z
M 3422 2481 
L 3422 2044 
L 191 2044 
L 191 2481 
L 3422 2481 
z
" transform="scale(0.015625)"/>
       <path id="Times-Roman-2d" d="M 250 1644 
L 1822 1644 
L 1822 1244 
L 250 1244 
L 250 1644 
z
" transform="scale(0.015625)"/>
      </defs>
      <use xlink:href="#Times-Roman-74"/>
      <use xlink:href="#Times-Roman-6f" transform="translate(27.783203 0)"/>
      <use xlink:href="#Times-Roman-6c" transform="translate(77.783203 0)"/>
      <use xlink:href="#Times-Roman-3d" transform="translate(105.566406 0)"/>
      <use xlink:href="#Times-Roman-31" transform="translate(161.962891 0)"/>
      <use xlink:href="#Times-Roman-65" transform="translate(211.962891 0)"/>
      <use xlink:href="#Times-Roman-2d" transform="translate(256.347656 0)"/>
      <use xlink:href="#Times-Roman-30" transform="translate(289.648438 0)"/>
      <use xlink:href="#Times-Roman-31" transform="translate(339.648438 0)"/>
     </g>
    </g>
    <g id="line2d_78">
     <path d="M 269.620164 42.774091 
L 277.620164 42.774091 
L 285.620164 42.774091 
" style="fill: none; stroke: #8f0da4; stroke-linecap: square"/>
     <g>
      <use xlink:href="#mec2d951a79" x="277.620164" y="42.774091" style="fill: #8f0da4; stroke: #8f0da4"/>
     </g>
    </g>
    <g id="text_23">
     <!-- tol=1e-02 -->
     <g transform="translate(292.020164 45.574091) scale(0.08 -0.08)">
      <use xlink:href="#Times-Roman-74"/>
      <use xlink:href="#Times-Roman-6f" transform="translate(27.783203 0)"/>
      <use xlink:href="#Times-Roman-6c" transform="translate(77.783203 0)"/>
      <use xlink:href="#Times-Roman-3d" transform="translate(105.566406 0)"/>
      <use xlink:href="#Times-Roman-31" transform="translate(161.962891 0)"/>
      <use xlink:href="#Times-Roman-65" transform="translate(211.962891 0)"/>
      <use xlink:href="#Times-Roman-2d" transform="translate(256.347656 0)"/>
      <use xlink:href="#Times-Roman-30" transform="translate(289.648438 0)"/>
      <use xlink:href="#Times-Roman-32" transform="translate(339.648438 0)"/>
     </g>
    </g>
    <g id="line2d_79">
     <path d="M 269.620164 54.116591 
L 277.620164 54.116591 
L 285.620164 54.116591 
" style="fill: none; stroke: #cc4778; stroke-linecap: square"/>
     <g>
      <use xlink:href="#m1b77adc047" x="277.620164" y="54.116591" style="fill: #cc4778; stroke: #cc4778"/>
     </g>
    </g>
    <g id="text_24">
     <!-- tol=1e-03 -->
     <g transform="translate(292.020164 56.916591) scale(0.08 -0.08)">
      <use xlink:href="#Times-Roman-74"/>
      <use xlink:href="#Times-Roman-6f" transform="translate(27.783203 0)"/>
      <use xlink:href="#Times-Roman-6c" transform="translate(77.783203 0)"/>
      <use xlink:href="#Times-Roman-3d" transform="translate(105.566406 0)"/>
      <use xlink:href="#Times-Roman-31" transform="translate(161.962891 0)"/>
      <use xlink:href="#Times-Roman-65" transform="translate(211.962891 0)"/>
      <use xlink:href="#Times-Roman-2d" transform="translate(256.347656 0)"/>
      <use xlink:href="#Times-Roman-30" transform="translate(289.648438 0)"/>
      <use xlink:href="#Times-Roman-33" transform="translate(339.648438 0)"/>
     </g>
    </g>
    <g id="line2d_80">
     <path d="M 339.191414 31.431591 
L 347.191414 31.431591 
L 355.191414 31.431591 
" style="fill: none; stroke: #f2844b; stroke-linecap: square"/>
     <g>
      <use xlink:href="#md965989fbf" x="347.191414" y="31.431591" style="fill: #f2844b; stroke: #f2844b"/>
     </g>
    </g>
    <g id="text_25">
     <!-- tol=1e-04 -->
     <g transform="translate(361.591414 34.231591) scale(0.08 -0.08)">
      <use xlink:href="#Times-Roman-74"/>
      <use xlink:href="#Times-Roman-6f" transform="translate(27.783203 0)"/>
      <use xlink:href="#Times-Roman-6c" transform="translate(77.783203 0)"/>
      <use xlink:href="#Times-Roman-3d" transform="translate(105.566406 0)"/>
      <use xlink:href="#Times-Roman-31" transform="translate(161.962891 0)"/>
      <use xlink:href="#Times-Roman-65" transform="translate(211.962891 0)"/>
      <use xlink:href="#Times-Roman-2d" transform="translate(256.347656 0)"/>
      <use xlink:href="#Times-Roman-30" transform="translate(289.648438 0)"/>
      <use xlink:href="#Times-Roman-34" transform="translate(339.648438 0)"/>
     </g>
    </g>
    <g id="line2d_81">
     <path d="M 339.191414 42.774091 
L 347.191414 42.774091 
L 355.191414 42.774091 
" style="fill: none; stroke: #fcce25; stroke-linecap: square"/>
     <g>
      <use xlink:href="#mc5dfb9eafa" x="347.191414" y="42.774091" style="fill: #fcce25; stroke: #fcce25"/>
     </g>
    </g>
    <g id="text_26">
     <!-- tol=1e-05 -->
     <g transform="translate(361.591414 45.574091) scale(0.08 -0.08)">
      <use xlink:href="#Times-Roman-74"/>
      <use xlink:href="#Times-Roman-6f" transform="translate(27.783203 0)"/>
      <use xlink:href="#Times-Roman-6c" transform="translate(77.783203 0)"/>
      <use xlink:href="#Times-Roman-3d" transform="translate(105.566406 0)"/>
      <use xlink:href="#Times-Roman-31" transform="translate(161.962891 0)"/>
      <use xlink:href="#Times-Roman-65" transform="translate(211.962891 0)"/>
      <use xlink:href="#Times-Roman-2d" transform="translate(256.347656 0)"/>
      <use xlink:href="#Times-Roman-30" transform="translate(289.648438 0)"/>
      <use xlink:href="#Times-Roman-35" transform="translate(339.648438 0)"/>
     </g>
    </g>
   </g>
  </g>
 </g>
 <defs>
  <clipPath id="p4513c8c07d">
   <rect x="32.037336" y="21.431591" width="367.925328" height="227.115792"/>
  </clipPath>
 </defs>
</svg>
